# This file uses centimeters as units for non-parametric coordinates.

mtllib Shelf_low.mtl
g default
v -626.370295 656.480750 -689.718370
v -626.370295 657.938391 -688.260728
v -627.827919 657.938391 -689.718370
v 205.372245 657.938391 -690.354875
v 203.914540 657.938391 -688.897233
v 203.914540 656.480750 -690.354875
v -627.827919 664.741858 -689.718370
v -626.370295 664.741858 -688.260728
v -626.370295 666.199500 -689.718370
v 203.914540 666.199500 -690.354875
v 203.914540 664.741858 -688.897233
v 205.372245 664.741858 -690.354875
v -629.709505 664.741858 -894.703397
v -628.251881 666.199500 -894.703397
v -628.251881 664.741858 -896.161038
v 199.777618 664.741858 -898.373548
v 199.777618 666.199500 -896.915906
v 201.235323 664.741858 -896.915906
v -629.709505 657.938391 -894.703397
v -628.251881 657.938391 -896.161038
v -628.251881 656.480750 -894.703397
v 199.777618 656.480750 -896.915906
v 199.777618 657.938391 -898.373548
v 201.235323 657.938391 -896.915906
v -637.019418 657.938391 -880.368308
v -637.019418 664.741858 -880.368287
v -635.561794 666.199500 -880.368308
v 213.182851 666.199500 -885.563689
v 214.640556 664.741858 -885.563710
v 214.640556 657.938391 -885.563689
v 213.182851 656.480750 -885.563710
v -635.561794 656.480750 -880.368287
v -636.126635 657.938391 -702.626497
v -636.126635 664.741858 -702.626405
v -634.669012 666.199500 -702.626497
v 212.694926 666.199500 -702.626405
v 214.152631 664.741858 -702.626497
v 214.152631 657.938391 -702.626405
v 212.694926 656.480750 -702.626497
v -634.669012 656.480750 -702.626405
v 176.262427 656.480750 -683.880540
v 176.262265 656.480750 -702.626497
v 176.262265 656.480750 -885.410262
v 166.018589 656.480750 -901.931504
v 166.018751 657.938391 -903.389146
v 166.018589 664.741858 -903.389146
v 166.018751 666.199500 -901.931504
v 176.262427 666.199500 -885.410243
v 176.262427 666.199500 -702.626420
v 176.262265 666.199500 -683.880540
v 176.262427 664.741858 -682.422899
v 176.262265 657.938391 -682.422883
v -597.256205 656.480750 -683.074052
v -603.089637 656.480750 -702.626405
v -603.089637 656.480750 -885.410243
v -595.507444 656.480750 -901.931504
v -595.507685 657.938391 -903.389146
v -595.507444 664.741858 -903.389146
v -595.507685 666.199500 -901.931505
v -603.089880 666.199500 -885.410260
v -603.089880 666.199500 -702.626497
v -597.255962 666.199500 -683.074067
v -597.256205 664.741858 -681.616410
v -597.255962 657.938391 -681.616426
vt 0.008244 0.300290
vt 0.010558 0.300290
vt 0.009622 0.541619
vt 0.007317 0.543071
vt 0.010856 0.297597
vt 0.020020 0.302757
vt 0.018455 0.539272
vt 0.010204 0.544345
vt 0.020924 0.299878
vt 0.023062 0.302909
vt 0.021320 0.539160
vt 0.019365 0.541923
vt 0.989257 0.301522
vt 0.991378 0.299719
vt 0.985205 0.550533
vt 0.983851 0.547910
vt 0.988405 0.298753
vt 0.982291 0.550475
vt 0.975443 0.543015
vt 0.980251 0.304673
vt 0.979107 0.301990
vt 0.973845 0.545486
vt 0.977263 0.304948
vt 0.972548 0.542450
vt 0.023001 0.300332
vt 0.977362 0.302397
vt 0.021226 0.541680
vt 0.972586 0.544954
vt 0.015097 0.011358
vt 0.961456 0.015510
vt 0.964537 0.251706
vt 0.015599 0.245811
vt 0.015097 0.009043
vt 0.961572 0.013152
vt 0.015429 0.248170
vt 0.964678 0.254068
vt 0.021627 0.292011
vt 0.978860 0.294150
vt 0.973511 0.553138
vt 0.019776 0.549829
vt 0.004334 0.522038
vt 0.012028 0.521871
vt 0.014341 0.521879
vt 0.985842 0.528243
vt 0.988112 0.528254
vt 0.995600 0.528650
vt 0.997833 0.528890
vt 0.976684 0.028614
vt 0.001992 0.522153
vt 0.006608 0.027764
vt 0.005594 0.318635
vt 0.013218 0.318886
vt 0.015518 0.318878
vt 0.985757 0.319988
vt 0.988054 0.320001
vt 0.995692 0.319760
vt 0.998008 0.319591
vt 0.974673 0.237716
vt 0.003281 0.318477
vt 0.006214 0.230952
vt 0.932873 0.258829
vt 0.933025 0.237408
vt 0.934484 0.028504
vt 0.922909 0.009542
vt 0.922929 0.007186
vt 0.932410 0.557760
vt 0.932374 0.549956
vt 0.932373 0.547594
vt 0.944134 0.528668
vt 0.944325 0.319567
vt 0.944348 0.298092
vt 0.944354 0.295732
vt 0.932863 0.261185
vt 0.944427 0.287933
vt 0.048834 0.253575
vt 0.042321 0.231186
vt 0.043784 0.022284
vt 0.052585 0.003469
vt 0.052595 0.001113
vt 0.059929 0.556962
vt 0.059999 0.549165
vt 0.060005 0.546805
vt 0.051318 0.527880
vt 0.051460 0.318573
vt 0.058174 0.296170
vt 0.058174 0.293808
vt 0.048813 0.255931
vt 0.058136 0.286005
vn -0.706914 -0.706905 -0.023618
vn -0.706914 -0.706905 -0.023617
vn -0.665188 -0.665183 -0.339200
vn -0.665188 -0.665183 -0.339200
vn 0.003527 -0.707102 0.707103
vn 0.009449 -0.707075 0.707076
vn 0.163336 -0.697606 0.697615
vn 0.163336 -0.697606 0.697615
vn -0.707110 0.000000 0.707103
vn -0.707110 0.000000 0.707103
vn -0.707110 0.000000 0.707103
vn -0.707110 0.000000 0.707103
vn 0.706303 -0.706351 -0.046953
vn 0.706302 -0.706351 -0.046964
vn 0.542755 -0.542816 -0.640911
vn 0.542755 -0.542816 -0.640911
vn 0.707091 0.000000 0.707123
vn 0.707091 0.000000 0.707123
vn 0.707091 0.000000 0.707123
vn 0.707091 0.000000 0.707123
vn -0.706914 0.706905 -0.023616
vn -0.706914 0.706905 -0.023619
vn -0.665190 0.665180 -0.339201
vn -0.665190 0.665180 -0.339201
vn 0.009449 0.707077 0.707073
vn 0.003527 0.707104 0.707100
vn 0.163334 0.697615 0.697607
vn 0.163334 0.697615 0.697607
vn 0.706328 0.706325 -0.046964
vn 0.706328 0.706325 -0.046956
vn 0.542755 0.542816 -0.640911
vn 0.542755 0.542816 -0.640911
vn -0.707111 0.000000 -0.707103
vn -0.707111 0.000000 -0.707103
vn -0.707111 0.000000 -0.707103
vn -0.707111 0.000000 -0.707103
vn 0.002287 0.707105 -0.707105
vn 0.006542 0.707091 -0.707092
vn 0.104481 0.703231 -0.703243
vn 0.104481 0.703231 -0.703243
vn 0.707092 0.000000 -0.707122
vn 0.707092 0.000000 -0.707122
vn 0.707092 0.000000 -0.707122
vn 0.707092 0.000000 -0.707122
vn 0.006542 -0.707092 -0.707091
vn 0.002287 -0.707105 -0.707105
vn 0.104479 -0.703245 -0.703229
vn 0.104479 -0.703245 -0.703229
vn 0.009087 -0.000000 0.999959
vn 0.009087 -0.000000 0.999959
vn 0.227970 -0.000003 0.973668
vn 0.227970 -0.000003 0.973668
vn 0.000000 1.000000 0.000000
vn 0.000000 1.000000 0.000000
vn 0.000000 1.000000 0.000000
vn 0.000000 1.000000 0.000000
vn 0.006307 0.000000 -0.999980
vn 0.006307 0.000000 -0.999980
vn 0.146958 0.000004 -0.989143
vn 0.146958 0.000004 -0.989143
vn 0.000000 -1.000000 0.000000
vn 0.000000 -1.000000 0.000000
vn 0.000000 -1.000000 0.000000
vn 0.000000 -1.000000 0.000000
vn 0.997797 0.000008 -0.066339
vn 0.997797 0.000008 -0.066338
vn 0.646251 0.000000 -0.763125
vn 0.646251 0.000000 -0.763125
vn -0.890860 0.000000 -0.454277
vn -0.999442 0.000000 -0.033391
vn -0.999442 0.000000 -0.033390
vn -0.890860 0.000000 -0.454277
vn -0.577351 -0.577350 0.577350
vn -0.577351 -0.577350 0.577350
vn -0.577351 -0.577350 0.577350
vn 0.577305 -0.577410 0.577337
vn 0.577305 -0.577410 0.577337
vn 0.577305 -0.577410 0.577337
vn -0.577351 0.577350 0.577350
vn -0.577351 0.577350 0.577350
vn -0.577351 0.577350 0.577350
vn 0.577305 0.577410 0.577336
vn 0.577305 0.577410 0.577336
vn 0.577305 0.577410 0.577336
vn -0.577355 0.577348 -0.577348
vn -0.577355 0.577348 -0.577348
vn -0.577355 0.577348 -0.577348
vn 0.577353 0.577319 -0.577378
vn 0.577353 0.577319 -0.577378
vn 0.577353 0.577319 -0.577378
vn -0.577355 -0.577349 -0.577347
vn -0.577355 -0.577349 -0.577347
vn -0.577355 -0.577349 -0.577347
vn 0.577353 -0.577319 -0.577378
vn 0.577353 -0.577319 -0.577378
vn 0.577353 -0.577319 -0.577378
vn -0.998840 -0.000000 0.048155
vn -0.998840 -0.000000 0.048156
vn -0.706700 0.706692 0.034072
vn -0.706700 0.706692 0.034070
vn 0.000000 1.000000 0.000000
vn 0.000000 1.000000 0.000000
vn 0.706712 0.706705 0.033558
vn 0.706712 0.706705 0.033550
vn 0.998875 0.000008 0.047425
vn 0.998875 0.000008 0.047426
vn 0.706685 -0.706732 0.033553
vn 0.706685 -0.706732 0.033552
vn 0.000000 -1.000000 -0.000000
vn 0.000000 -1.000000 0.000000
vn -0.706701 -0.706691 0.034075
vn -0.706701 -0.706692 0.034067
vn -0.841159 -0.000003 0.540788
vn -0.841159 -0.000003 0.540788
vn -0.643710 0.643714 0.413847
vn -0.643710 0.643714 0.413847
vn 0.000000 1.000000 0.000000
vn 0.000000 1.000000 0.000000
vn 0.630947 0.630954 0.451446
vn 0.630947 0.630954 0.451446
vn 0.813264 0.000006 0.581895
vn 0.813264 0.000006 0.581895
vn 0.630929 -0.630982 0.451433
vn 0.630929 -0.630981 0.451433
vn 0.000000 -1.000000 -0.000000
vn 0.000000 -1.000000 0.000000
vn -0.643721 -0.643699 0.413853
vn -0.643721 -0.643699 0.413853
vn 0.000000 -1.000000 -0.000000
vn 0.000000 -1.000000 -0.000000
vn 0.000000 -1.000000 -0.000000
vn 0.000000 -1.000000 0.000000
vn -0.009452 -0.707076 -0.707075
vn -0.003291 -0.707103 -0.707103
vn -0.009100 0.000000 -0.999959
vn -0.009100 0.000000 -0.999959
vn -0.003291 0.707103 -0.707103
vn -0.009452 0.707075 -0.707076
vn 0.000000 1.000000 0.000000
vn 0.000000 1.000000 0.000000
vn 0.000000 1.000000 0.000000
vn 0.000000 1.000000 0.000000
vn -0.007608 0.707089 0.707084
vn -0.002384 0.707107 0.707103
vn -0.007273 -0.000000 0.999974
vn -0.007273 -0.000000 0.999974
vn -0.002384 -0.707105 0.707105
vn -0.007608 -0.707086 0.707087
vn 0.000000 -1.000000 0.000000
vn 0.000000 -1.000000 0.000000
vn 0.000000 -1.000000 -0.000000
vn 0.000000 -1.000000 0.000000
vn -0.154221 -0.698653 -0.698641
vn -0.154221 -0.698654 -0.698641
vn -0.215555 0.000004 -0.976492
vn -0.215555 0.000004 -0.976492
vn -0.154223 0.698641 -0.698653
vn -0.154223 0.698641 -0.698653
vn 0.000000 1.000000 0.000000
vn 0.000000 1.000000 0.000000
vn 0.000000 1.000000 0.000000
vn 0.000000 1.000000 0.000000
vn -0.159310 0.698084 0.698068
vn -0.159310 0.698085 0.698067
vn -0.222495 -0.000005 0.974934
vn -0.222495 -0.000005 0.974934
vn -0.159314 -0.698067 0.698084
vn -0.159314 -0.698067 0.698084
s 1
g pCube9
usemtl initialShadingGroup
f 32/49/1 25/41/2 19/3/3 21/4/4
s 2
f 52/73/5 41/61/6 6/31/7 5/36/8
s off
f 3/2/9 2/5/10 8/9/11 7/6/12
s 3
f 30/46/13 31/47/14 22/15/15 24/16/16
s off
f 5/17/17 4/13/18 12/20/19 11/21/20
s 4
f 26/42/21 27/43/22 14/11/23 13/7/24
s 5
f 50/71/25 51/72/26 11/26/27 10/23/28
s 6
f 28/44/29 29/45/30 18/19/31 17/24/32
s off
f 13/7/33 15/12/34 20/8/35 19/3/36
s 7
f 46/67/37 47/68/38 17/24/39 16/28/40
s off
f 16/22/41 18/19/42 24/16/43 23/18/44
s 8
f 44/64/45 45/65/46 23/34/47 22/30/48
s 9
f 51/72/49 52/74/50 5/38/51 11/26/52
s 10
f 47/68/53 48/69/54 28/44/55 17/24/56
s 11
f 45/66/57 46/67/58 16/28/59 23/39/60
s 12
f 43/63/61 44/64/62 22/30/63 31/48/64
s 13
f 29/45/65 30/46/66 24/16/67 18/19/68
s 14
f 19/3/69 25/41/70 26/42/71 13/7/72
s off
f 1/1/73 2/5/74 3/2/75
f 4/13/76 5/17/77 6/14/78
f 7/6/79 8/9/80 9/10/81
f 10/23/82 11/21/83 12/20/84
f 13/7/85 14/11/86 15/12/87
f 16/22/88 17/24/89 18/19/90
f 19/3/91 20/8/92 21/4/93
f 22/15/94 23/18/95 24/16/96
s 14
f 26/42/71 25/41/70 33/51/97 34/52/98
s 4
f 34/52/99 35/53/100 27/43/22 26/42/21
s 10
f 48/69/54 49/70/101 36/54/102 28/44/55
s 6
f 36/54/103 37/55/104 29/45/30 28/44/29
s 13
f 37/55/105 38/56/106 30/46/66 29/45/65
s 3
f 38/56/107 39/57/108 31/47/14 30/46/13
s 12
f 42/62/109 43/63/61 31/48/64 39/58/110
s 1
f 40/59/111 33/51/112 25/41/2 32/49/1
s 14
f 34/52/98 33/51/97 3/2/113 7/6/114
s 4
f 7/6/115 9/10/116 35/53/100 34/52/99
s 10
f 49/70/101 50/71/117 10/23/118 36/54/102
s 6
f 10/23/119 12/20/120 37/55/104 36/54/103
s 13
f 4/13/121 38/56/106 37/55/105 12/20/122
s 3
f 4/13/123 6/14/124 39/57/108 38/56/107
s 12
f 41/61/125 42/62/109 39/58/110 6/31/126
s 1
f 1/1/127 3/2/128 33/51/112 40/59/111
s 12
f 53/75/129 54/76/130 42/62/109 41/61/125
f 54/76/130 55/77/131 43/63/61 42/62/109
f 55/77/131 56/78/132 44/64/62 43/63/61
s 8
f 56/78/133 57/79/134 45/65/46 44/64/45
s 11
f 57/80/135 58/81/136 46/67/58 45/66/57
s 7
f 58/81/137 59/82/138 47/68/38 46/67/37
s 10
f 59/82/139 60/83/140 48/69/54 47/68/53
f 60/83/140 61/84/141 49/70/101 48/69/54
f 61/84/141 62/85/142 50/71/117 49/70/101
s 5
f 62/85/143 63/86/144 51/72/26 50/71/25
s 9
f 63/86/145 64/88/146 52/74/50 51/72/49
s 2
f 64/87/147 53/75/148 41/61/6 52/73/5
s 12
f 40/60/149 54/76/130 53/75/129 1/32/150
f 32/50/151 55/77/131 54/76/130 40/60/149
f 21/29/152 56/78/132 55/77/131 32/50/151
s 8
f 21/29/153 20/33/154 57/79/134 56/78/133
s 11
f 15/27/155 58/81/136 57/80/135 20/40/156
s 7
f 15/27/157 14/11/158 59/82/138 58/81/137
s 10
f 27/43/159 60/83/140 59/82/139 14/11/160
f 35/53/161 61/84/141 60/83/140 27/43/159
f 9/10/162 62/85/142 61/84/141 35/53/161
s 5
f 9/10/163 8/25/164 63/86/144 62/85/143
s 9
f 2/37/165 64/88/146 63/86/145 8/25/166
s 2
f 2/35/167 1/32/168 53/75/148 64/87/147
