# This file uses centimeters as units for non-parametric coordinates.

mtllib Wall.mtl
g default
v -1150.408186 229.560771 0.000000
v 1150.408675 229.560771 0.000000
v -1150.408186 1370.439413 0.000000
v 1150.408675 1370.439413 0.000000
v -848.159484 229.560771 0.000000
v -848.159484 1370.439413 0.000000
v -212.970550 229.560771 0.000000
v -212.970550 1370.439413 0.000000
v 71.566688 229.560771 0.000000
v 71.566688 1370.439413 0.000000
v 679.937371 229.560771 0.000000
v 679.937371 1370.439413 0.000000
v -1150.408186 590.404047 0.000000
v -848.159484 590.404047 0.000000
v -212.970550 590.404047 0.000000
v 71.566688 590.404047 0.000000
v 679.937310 590.404047 0.000000
v 1150.408675 590.404047 0.000000
v -1150.408186 752.258305 0.000000
v -848.159484 752.258305 0.000000
v -212.970550 752.258305 0.000000
v 71.566688 752.258305 0.000000
v 679.937310 752.258305 0.000000
v 1150.408675 752.258305 0.000000
v -1150.408186 927.367452 0.000000
v -848.159484 927.367452 0.000000
v -212.970550 1027.187993 0.000000
v 71.566688 927.367452 0.000000
v 679.937310 927.367452 0.000000
v 1150.408675 927.367452 0.000000
v -1150.408186 1120.666006 0.000000
v -848.159484 1120.666006 0.000000
v -212.970550 1220.486608 0.000000
v 71.566688 1120.666006 0.000000
v 679.937310 1120.666006 0.000000
v 1150.408675 1120.666006 0.000000
v -1150.408186 927.367452 54.997375
v -848.159484 927.367452 54.997375
v -848.159484 1120.666006 54.997375
v -1150.408186 1120.666006 54.997375
v 940.997794 229.560771 0.000000
v 940.997794 590.404047 0.000000
v 940.997794 752.258305 0.000000
v 940.997794 927.367452 0.000000
v 940.997794 1120.666006 0.000000
v 940.997794 1370.439413 0.000000
v 940.997794 752.258305 45.004726
v 940.997794 927.367452 45.004726
v 679.937310 927.367452 45.004726
v 679.937310 752.258305 45.004726
v -212.970550 752.258305 -19.827370
v 71.566688 752.258305 -19.827370
v -212.970550 590.404047 -19.827370
v 71.566688 590.404047 -19.827370
v -1150.408186 426.606451 0.000000
v -848.159484 426.606451 0.000000
v -212.970550 426.606451 0.000000
v 71.566688 426.606451 0.000000
v 679.937371 426.606451 0.000000
v 940.997794 426.606451 0.000000
v 1150.408675 426.606451 0.000000
v -506.659664 229.560771 0.000000
v -506.659664 426.606451 0.000000
v -506.659664 590.404047 0.000000
v -506.659664 752.258305 0.000000
v -506.659664 1027.187993 0.000000
v -506.659664 1220.486608 0.000000
v -506.659664 1370.439413 0.000000
v -506.659664 1220.486608 39.308926
v -212.970550 1220.486608 39.308926
v -506.659664 1027.187993 39.308926
v -212.970550 1027.187993 39.308926
vt 0.052863 0.058486
vt 0.243020 0.100593
vt 0.200902 0.100591
vt 0.052866 0.100608
vt 0.780106 0.066781
vt 0.947752 0.066781
vt 0.947752 0.109871
vt 0.780104 0.109871
vt 0.947749 0.403075
vt 0.780104 0.403075
vt 0.780104 0.359994
vt 0.947752 0.359984
vt 0.439508 0.385852
vt 0.280484 0.385870
vt 0.280484 0.366380
vt 0.439508 0.366380
vt 0.280479 0.067289
vt 0.439508 0.067289
vt 0.439508 0.086779
vt 0.280484 0.086770
vt 0.683000 0.397384
vt 0.510580 0.398548
vt 0.510426 0.363201
vt 0.682886 0.362572
vt 0.510371 0.065503
vt 0.683201 0.065470
vt 0.683205 0.100606
vt 0.510378 0.100647
vt 0.002251 0.872157
vt 0.132798 0.980966
vt 0.001787 0.980425
vt 0.281006 0.916641
vt 0.280777 0.981560
vt 0.281417 0.832892
vt 0.718375 0.100666
vt 0.407898 0.981870
vt 0.282008 0.713835
vt 0.134091 0.713052
vt 0.531432 0.874476
vt 0.530878 0.982482
vt 0.408575 0.833443
vt 0.409147 0.714483
vt 0.003133 0.712297
vt 0.010763 0.332083
vt 0.282384 0.643752
vt 0.134492 0.642930
vt 0.531861 0.790878
vt 0.794539 0.875867
vt 0.793963 0.983889
vt 0.409506 0.644439
vt 0.532253 0.715138
vt 0.003553 0.642159
vt 0.282785 0.572833
vt 0.134902 0.571980
vt 0.794978 0.792268
vt 0.907456 0.876468
vt 0.906885 0.984504
vt 0.409902 0.573562
vt 0.795370 0.716542
vt 0.003979 0.571197
vt 0.283288 0.487523
vt 0.135412 0.486638
vt 0.907898 0.792866
vt 0.998039 0.876946
vt 0.997471 0.984995
vt 0.410406 0.488297
vt 0.532617 0.645132
vt 0.533004 0.574278
vt 0.795736 0.646548
vt 0.004499 0.485844
vt 0.998468 0.793332
vt 0.533481 0.489049
vt 0.796115 0.575716
vt 0.908635 0.647149
vt 0.908277 0.717143
vt 0.998844 0.717600
vt 0.796579 0.490505
vt 0.909004 0.576319
vt 0.999188 0.647615
vt 0.909458 0.491117
vt 0.999553 0.576794
vt 0.999998 0.491596
vt 0.052882 0.332079
vt 0.200918 0.332069
vt 0.990884 0.109862
vt 0.990880 0.359994
vt 0.736976 0.359994
vt 0.736971 0.109862
vt 0.458986 0.086770
vt 0.458986 0.366380
vt 0.260999 0.366380
vt 0.260996 0.086779
vt 0.475293 0.363200
vt 0.475237 0.100655
vt 0.243038 0.332065
vt 0.133260 0.872711
vt 0.002699 0.788189
vt 0.133676 0.788929
vt 0.010746 0.100607
vt 0.200898 0.058476
vt 0.717887 0.362616
vt 0.408154 0.916961
vn 0.000000 0.000000 1.000000
vn 0.000000 0.000000 1.000000
vn 0.000000 0.000000 1.000000
vn 0.000000 0.000000 1.000000
vn 0.000000 0.000000 1.000000
vn 0.000000 0.000000 1.000000
vn 0.000000 0.000000 1.000000
vn 0.000000 0.000000 1.000000
vn 0.000000 0.000000 1.000000
vn 0.000000 0.000000 1.000000
vn 0.000000 0.000000 1.000000
vn 0.000000 0.000000 1.000000
vn 0.000000 0.000000 1.000000
vn 0.000000 0.000000 1.000000
vn 0.000000 0.000000 1.000000
vn 0.000000 0.000000 1.000000
vn 0.000000 0.000000 1.000000
vn 0.000000 0.000000 1.000000
vn 0.000000 0.000000 1.000000
vn 0.000000 0.000000 1.000000
vn 0.000000 0.000000 1.000000
vn 0.000000 0.000000 1.000000
vn 0.000000 0.000000 1.000000
vn 0.000000 0.000000 1.000000
vn 0.000000 0.000000 1.000000
vn 0.000000 0.000000 1.000000
vn 0.000000 0.000000 1.000000
vn 0.000000 0.000000 1.000000
vn 0.000000 0.000000 1.000000
vn 0.000000 0.000000 1.000000
vn 0.000000 0.000000 1.000000
vn 0.000000 0.000000 1.000000
vn 0.000000 0.000000 1.000000
vn 0.000000 0.000000 1.000000
vn 0.000000 0.000000 1.000000
vn 0.000000 0.000000 1.000000
vn 0.000000 0.000000 1.000000
vn 0.000000 0.000000 1.000000
vn 0.000000 0.000000 1.000000
vn 0.000000 0.000000 1.000000
vn 0.000000 0.000000 1.000000
vn 0.000000 0.000000 1.000000
vn 0.000000 0.000000 1.000000
vn 0.000000 0.000000 1.000000
vn 0.000000 0.000000 1.000000
vn 0.000000 0.000000 1.000000
vn 0.000000 0.000000 1.000000
vn 0.000000 0.000000 1.000000
vn 0.000000 0.000000 1.000000
vn 0.000000 0.000000 1.000000
vn 0.000000 0.000000 1.000000
vn 0.000000 0.000000 1.000000
vn 0.000000 0.000000 1.000000
vn 0.000000 0.000000 1.000000
vn 0.000000 -1.000000 0.000000
vn 0.000000 -1.000000 0.000000
vn 0.000000 -1.000000 0.000000
vn 0.000000 -1.000000 0.000000
vn 1.000000 0.000000 0.000000
vn 1.000000 0.000000 0.000000
vn 1.000000 0.000000 0.000000
vn 1.000000 0.000000 0.000000
vn 0.000000 1.000000 0.000000
vn 0.000000 1.000000 0.000000
vn 0.000000 1.000000 0.000000
vn 0.000000 1.000000 0.000000
vn 0.000000 0.000000 1.000000
vn 0.000000 0.000000 1.000000
vn 0.000000 0.000000 1.000000
vn 0.000000 0.000000 1.000000
vn 0.000000 0.000000 1.000000
vn 0.000000 0.000000 1.000000
vn 1.000000 0.000000 0.000000
vn 1.000000 0.000000 0.000000
vn 1.000000 0.000000 0.000000
vn 1.000000 0.000000 0.000000
vn 0.000000 1.000000 0.000000
vn 0.000000 1.000000 0.000000
vn 0.000000 1.000000 0.000000
vn 0.000000 1.000000 0.000000
vn -1.000000 0.000000 0.000000
vn -1.000000 0.000000 0.000000
vn -1.000000 0.000000 0.000000
vn -1.000000 0.000000 0.000000
vn 0.000000 -1.000000 0.000000
vn 0.000000 -1.000000 0.000000
vn 0.000000 -1.000000 0.000000
vn 0.000000 -1.000000 0.000000
vn 0.000000 -1.000000 0.000000
vn 0.000000 -1.000000 0.000000
vn 0.000000 -1.000000 0.000000
vn 0.000000 -1.000000 0.000000
vn 1.000000 0.000000 0.000000
vn 1.000000 0.000000 0.000000
vn 1.000000 0.000000 0.000000
vn 1.000000 0.000000 0.000000
vn 0.000000 1.000000 0.000000
vn 0.000000 1.000000 0.000000
vn 0.000000 1.000000 0.000000
vn 0.000000 1.000000 0.000000
vn -1.000000 0.000000 0.000000
vn -1.000000 0.000000 0.000000
vn -1.000000 0.000000 0.000000
vn -1.000000 0.000000 0.000000
vn 0.000000 0.000000 1.000000
vn 0.000000 0.000000 1.000000
vn 0.000000 0.000000 1.000000
vn 0.000000 0.000000 1.000000
vn 0.000000 0.000000 1.000000
vn 0.000000 0.000000 1.000000
vn 0.000000 0.000000 1.000000
vn 0.000000 0.000000 1.000000
vn 0.000000 0.000000 1.000000
vn 0.000000 0.000000 1.000000
vn 0.000000 0.000000 1.000000
vn 0.000000 0.000000 1.000000
vn 0.000000 1.000000 0.000000
vn 0.000000 1.000000 0.000000
vn 0.000000 1.000000 0.000000
vn 0.000000 1.000000 0.000000
vn -1.000000 0.000000 0.000000
vn -1.000000 0.000000 0.000000
vn -1.000000 0.000000 0.000000
vn -1.000000 0.000000 0.000000
vn 0.000000 -1.000000 0.000000
vn 0.000000 -1.000000 0.000000
vn 0.000000 -1.000000 0.000000
vn 0.000000 -1.000000 0.000000
vn 1.000000 0.000000 0.000000
vn 1.000000 0.000000 0.000000
vn 1.000000 0.000000 0.000000
vn 1.000000 0.000000 0.000000
s 1
g pPlane1
usemtl initialShadingGroup
f 31/29/1 32/96/2 6/30/3 3/31/4
f 6/30/3 32/96/2 67/32/5 68/33/6
f 8/36/7 33/102/8 34/39/9 10/40/10
f 10/40/10 34/39/9 35/48/11 12/49/12
f 12/49/12 35/48/11 45/56/13 46/57/14
f 55/60/15 56/54/16 14/46/17 13/52/18
f 63/53/19 64/45/20 14/46/17 56/54/16
f 16/67/21 15/50/22 57/58/23 58/68/24
f 17/69/25 16/67/21 58/68/24 59/73/26
f 59/73/26 60/78/27 42/74/28 17/69/25
f 13/52/18 14/46/17 20/38/29 19/43/30
f 64/45/20 65/37/31 20/38/29 14/46/17
s off
f 52/19/32 51/16/33 53/15/34 54/20/35
s 1
f 23/59/36 22/51/37 16/67/21 17/69/25
f 42/74/28 43/75/38 23/59/36 17/69/25
f 19/43/30 20/38/29 26/98/39 25/97/40
f 65/37/31 66/34/41 26/98/39 20/38/29
f 28/47/42 27/41/43 21/42/44 22/51/37
f 29/55/45 28/47/42 22/51/37 23/59/36
s off
f 47/8/46 48/7/47 49/12/48 50/11/49
f 37/83/50 38/4/51 39/3/52 40/84/53
s 1
f 66/34/41 67/32/5 32/96/2 26/98/39
f 34/39/9 33/102/8 27/41/43 28/47/42
f 35/48/11 34/39/9 28/47/42 29/55/45
f 44/63/54 45/56/13 35/48/11 29/55/45
s off
f 25/44/55 26/99/56 38/4/57 37/83/58
f 26/1/59 32/100/60 39/3/61 38/4/62
f 32/2/63 31/95/64 40/84/65 39/3/66
s 1
f 18/79/67 42/74/28 60/78/27 61/81/68
f 24/76/69 43/75/38 42/74/28 18/79/67
f 30/71/70 44/63/54 43/75/38 24/76/69
f 36/64/71 45/56/13 44/63/54 30/71/70
f 46/57/14 45/56/13 36/64/71 4/65/72
s off
f 43/5/73 44/6/74 48/7/75 47/8/76
f 44/85/77 29/86/78 49/12/79 48/7/80
f 29/9/81 23/10/82 50/11/83 49/12/84
f 23/87/85 43/88/86 47/8/87 50/11/88
f 22/89/89 21/90/90 51/16/91 52/19/92
f 21/13/93 15/14/94 53/15/95 51/16/96
f 15/91/97 16/92/98 54/20/99 53/15/100
f 16/17/101 22/18/102 52/19/103 54/20/104
s 1
f 1/70/105 5/62/106 56/54/16 55/60/15
f 62/61/107 63/53/19 56/54/16 5/62/106
f 58/68/24 57/58/23 7/66/108 9/72/109
f 59/73/26 58/68/24 9/72/109 11/77/110
f 41/80/111 60/78/27 59/73/26 11/77/110
f 61/81/68 60/78/27 41/80/111 2/82/112
f 57/58/23 63/53/19 62/61/107 7/66/108
f 15/50/22 64/45/20 63/53/19 57/58/23
f 21/42/44 65/37/31 64/45/20 15/50/22
f 27/41/43 66/34/41 65/37/31 21/42/44
s off
f 70/27/113 69/24/114 71/23/115 72/28/116
s 1
f 68/33/6 67/32/5 33/102/8 8/36/7
s off
f 33/35/117 67/101/118 69/24/119 70/27/120
f 67/21/121 66/22/122 71/23/123 69/24/124
f 66/93/125 27/94/126 72/28/127 71/23/128
f 27/25/129 33/26/130 70/27/131 72/28/132
